<svg xmlns="http://www.w3.org/2000/svg" xmlns:xlink="http://www.w3.org/1999/xlink" width="109" zoomAndPan="magnify" viewBox="0 0 81.75 42.75" height="57" preserveAspectRatio="xMidYMid meet" version="1.0"><defs><g/><clipPath id="3835537354"><path d="M 40.75 16.445312 L 81 16.445312 L 81 29 L 40.75 29 Z M 40.75 16.445312 " clip-rule="nonzero"/></clipPath><clipPath id="a22fffb04c"><path d="M 40.75 27.207031 C 40.75 26.164062 41.667969 25.351562 42.714844 25.464844 L 73.925781 28.953125 C 77.929688 29.402344 81.316406 26.054688 80.886719 22.082031 C 80.441406 17.941406 76.117188 15.386719 72.238281 16.96875 L 43.1875 28.828125 C 42.027344 29.304688 40.75 28.457031 40.75 27.207031 Z M 40.75 27.207031 " clip-rule="nonzero"/></clipPath><linearGradient x1="805.941485" gradientTransform="matrix(0.177377, 0, 0, 0.176051, 40.750727, 16.444739)" y1="187.592198" x2="763.258995" gradientUnits="userSpaceOnUse" y2="319.317229" id="90be92f58a"><stop stop-opacity="1" stop-color="rgb(79.389954%, 31.866455%, 49.595642%)" offset="0"/><stop stop-opacity="1" stop-color="rgb(79.359436%, 31.785583%, 49.766541%)" offset="0.0078125"/><stop stop-opacity="1" stop-color="rgb(79.299927%, 31.625366%, 50.108337%)" offset="0.015625"/><stop stop-opacity="1" stop-color="rgb(79.240417%, 31.465149%, 50.448608%)" offset="0.0234375"/><stop stop-opacity="1" stop-color="rgb(79.180908%, 31.304932%, 50.790405%)" offset="0.03125"/><stop stop-opacity="1" stop-color="rgb(79.121399%, 31.144714%, 51.132202%)" offset="0.0390625"/><stop stop-opacity="1" stop-color="rgb(79.06189%, 30.982971%, 51.473999%)" offset="0.046875"/><stop stop-opacity="1" stop-color="rgb(79.00238%, 30.822754%, 51.815796%)" offset="0.0546875"/><stop stop-opacity="1" stop-color="rgb(78.942871%, 30.662537%, 52.157593%)" offset="0.0625"/><stop stop-opacity="1" stop-color="rgb(78.883362%, 30.502319%, 52.49939%)" offset="0.0703125"/><stop stop-opacity="1" stop-color="rgb(78.823853%, 30.342102%, 52.841187%)" offset="0.078125"/><stop stop-opacity="1" stop-color="rgb(78.764343%, 30.181885%, 53.182983%)" offset="0.0859375"/><stop stop-opacity="1" stop-color="rgb(78.703308%, 30.021667%, 53.52478%)" offset="0.09375"/><stop stop-opacity="1" stop-color="rgb(78.643799%, 29.859924%, 53.866577%)" offset="0.101562"/><stop stop-opacity="1" stop-color="rgb(78.58429%, 29.699707%, 54.208374%)" offset="0.109375"/><stop stop-opacity="1" stop-color="rgb(78.52478%, 29.53949%, 54.550171%)" offset="0.117188"/><stop stop-opacity="1" stop-color="rgb(78.465271%, 29.379272%, 54.891968%)" offset="0.125"/><stop stop-opacity="1" stop-color="rgb(78.405762%, 29.219055%, 55.232239%)" offset="0.132813"/><stop stop-opacity="1" stop-color="rgb(78.346252%, 29.058838%, 55.574036%)" offset="0.140625"/><stop stop-opacity="1" stop-color="rgb(78.286743%, 28.898621%, 55.915833%)" offset="0.148438"/><stop stop-opacity="1" stop-color="rgb(78.227234%, 28.736877%, 56.257629%)" offset="0.15625"/><stop stop-opacity="1" stop-color="rgb(78.167725%, 28.57666%, 56.599426%)" offset="0.164063"/><stop stop-opacity="1" stop-color="rgb(78.108215%, 28.416443%, 56.941223%)" offset="0.171875"/><stop stop-opacity="1" stop-color="rgb(78.048706%, 28.256226%, 57.28302%)" offset="0.179687"/><stop stop-opacity="1" stop-color="rgb(77.989197%, 28.096008%, 57.624817%)" offset="0.1875"/><stop stop-opacity="1" stop-color="rgb(77.929688%, 27.935791%, 57.966614%)" offset="0.195313"/><stop stop-opacity="1" stop-color="rgb(77.870178%, 27.775574%, 58.308411%)" offset="0.203125"/><stop stop-opacity="1" stop-color="rgb(77.810669%, 27.613831%, 58.650208%)" offset="0.210938"/><stop stop-opacity="1" stop-color="rgb(77.75116%, 27.453613%, 58.992004%)" offset="0.21875"/><stop stop-opacity="1" stop-color="rgb(77.69165%, 27.293396%, 59.333801%)" offset="0.226562"/><stop stop-opacity="1" stop-color="rgb(77.630615%, 27.133179%, 59.674072%)" offset="0.234375"/><stop stop-opacity="1" stop-color="rgb(77.571106%, 26.972961%, 60.015869%)" offset="0.242188"/><stop stop-opacity="1" stop-color="rgb(77.511597%, 26.812744%, 60.357666%)" offset="0.25"/><stop stop-opacity="1" stop-color="rgb(77.452087%, 26.652527%, 60.699463%)" offset="0.257812"/><stop stop-opacity="1" stop-color="rgb(77.392578%, 26.490784%, 61.04126%)" offset="0.265625"/><stop stop-opacity="1" stop-color="rgb(77.333069%, 26.330566%, 61.383057%)" offset="0.273438"/><stop stop-opacity="1" stop-color="rgb(77.27356%, 26.170349%, 61.724854%)" offset="0.28125"/><stop stop-opacity="1" stop-color="rgb(77.21405%, 26.010132%, 62.06665%)" offset="0.289063"/><stop stop-opacity="1" stop-color="rgb(77.154541%, 25.849915%, 62.408447%)" offset="0.296875"/><stop stop-opacity="1" stop-color="rgb(77.095032%, 25.689697%, 62.750244%)" offset="0.304687"/><stop stop-opacity="1" stop-color="rgb(77.035522%, 25.52948%, 63.092041%)" offset="0.3125"/><stop stop-opacity="1" stop-color="rgb(76.976013%, 25.367737%, 63.433838%)" offset="0.320313"/><stop stop-opacity="1" stop-color="rgb(76.916504%, 25.20752%, 63.775635%)" offset="0.328125"/><stop stop-opacity="1" stop-color="rgb(76.856995%, 25.047302%, 64.117432%)" offset="0.335938"/><stop stop-opacity="1" stop-color="rgb(76.797485%, 24.887085%, 64.457703%)" offset="0.34375"/><stop stop-opacity="1" stop-color="rgb(76.737976%, 24.726868%, 64.7995%)" offset="0.351562"/><stop stop-opacity="1" stop-color="rgb(76.678467%, 24.56665%, 65.141296%)" offset="0.359375"/><stop stop-opacity="1" stop-color="rgb(76.618958%, 24.406433%, 65.483093%)" offset="0.367188"/><stop stop-opacity="1" stop-color="rgb(76.559448%, 24.24469%, 65.82489%)" offset="0.375"/><stop stop-opacity="1" stop-color="rgb(76.498413%, 24.084473%, 66.166687%)" offset="0.382812"/><stop stop-opacity="1" stop-color="rgb(76.438904%, 23.924255%, 66.508484%)" offset="0.390625"/><stop stop-opacity="1" stop-color="rgb(76.379395%, 23.764038%, 66.850281%)" offset="0.398438"/><stop stop-opacity="1" stop-color="rgb(76.319885%, 23.603821%, 67.192078%)" offset="0.40625"/><stop stop-opacity="1" stop-color="rgb(76.260376%, 23.443604%, 67.533875%)" offset="0.414063"/><stop stop-opacity="1" stop-color="rgb(76.200867%, 23.28186%, 67.875671%)" offset="0.421875"/><stop stop-opacity="1" stop-color="rgb(76.141357%, 23.121643%, 68.217468%)" offset="0.429687"/><stop stop-opacity="1" stop-color="rgb(76.081848%, 22.961426%, 68.559265%)" offset="0.4375"/><stop stop-opacity="1" stop-color="rgb(76.022339%, 22.801208%, 68.899536%)" offset="0.445313"/><stop stop-opacity="1" stop-color="rgb(75.96283%, 22.640991%, 69.241333%)" offset="0.453125"/><stop stop-opacity="1" stop-color="rgb(75.90332%, 22.480774%, 69.58313%)" offset="0.460938"/><stop stop-opacity="1" stop-color="rgb(75.843811%, 22.320557%, 69.924927%)" offset="0.46875"/><stop stop-opacity="1" stop-color="rgb(75.784302%, 22.158813%, 70.266724%)" offset="0.476562"/><stop stop-opacity="1" stop-color="rgb(75.724792%, 21.998596%, 70.608521%)" offset="0.484375"/><stop stop-opacity="1" stop-color="rgb(75.665283%, 21.838379%, 70.950317%)" offset="0.492188"/><stop stop-opacity="1" stop-color="rgb(75.605774%, 21.678162%, 71.292114%)" offset="0.494665"/><stop stop-opacity="1" stop-color="rgb(75.576782%, 21.598816%, 71.463013%)" offset="0.5"/><stop stop-opacity="1" stop-color="rgb(75.546265%, 21.517944%, 71.633911%)" offset="0.505335"/><stop stop-opacity="1" stop-color="rgb(75.517273%, 21.438599%, 71.80481%)" offset="0.507812"/><stop stop-opacity="1" stop-color="rgb(75.486755%, 21.357727%, 71.975708%)" offset="0.515625"/><stop stop-opacity="1" stop-color="rgb(75.42572%, 21.19751%, 72.317505%)" offset="0.523438"/><stop stop-opacity="1" stop-color="rgb(75.366211%, 21.035767%, 72.659302%)" offset="0.53125"/><stop stop-opacity="1" stop-color="rgb(75.306702%, 20.875549%, 73.001099%)" offset="0.539063"/><stop stop-opacity="1" stop-color="rgb(75.247192%, 20.715332%, 73.34137%)" offset="0.546875"/><stop stop-opacity="1" stop-color="rgb(75.187683%, 20.555115%, 73.683167%)" offset="0.554687"/><stop stop-opacity="1" stop-color="rgb(75.128174%, 20.394897%, 74.024963%)" offset="0.5625"/><stop stop-opacity="1" stop-color="rgb(75.068665%, 20.23468%, 74.36676%)" offset="0.570313"/><stop stop-opacity="1" stop-color="rgb(75.009155%, 20.074463%, 74.708557%)" offset="0.578125"/><stop stop-opacity="1" stop-color="rgb(74.949646%, 19.91272%, 75.050354%)" offset="0.585938"/><stop stop-opacity="1" stop-color="rgb(74.890137%, 19.752502%, 75.392151%)" offset="0.59375"/><stop stop-opacity="1" stop-color="rgb(74.830627%, 19.592285%, 75.733948%)" offset="0.601562"/><stop stop-opacity="1" stop-color="rgb(74.771118%, 19.432068%, 76.075745%)" offset="0.609375"/><stop stop-opacity="1" stop-color="rgb(74.711609%, 19.271851%, 76.417542%)" offset="0.617188"/><stop stop-opacity="1" stop-color="rgb(74.6521%, 19.111633%, 76.759338%)" offset="0.625"/><stop stop-opacity="1" stop-color="rgb(74.59259%, 18.951416%, 77.101135%)" offset="0.632812"/><stop stop-opacity="1" stop-color="rgb(74.533081%, 18.789673%, 77.442932%)" offset="0.640625"/><stop stop-opacity="1" stop-color="rgb(74.473572%, 18.629456%, 77.784729%)" offset="0.648438"/><stop stop-opacity="1" stop-color="rgb(74.414062%, 18.469238%, 78.125%)" offset="0.65625"/><stop stop-opacity="1" stop-color="rgb(74.354553%, 18.309021%, 78.466797%)" offset="0.664063"/><stop stop-opacity="1" stop-color="rgb(74.293518%, 18.148804%, 78.808594%)" offset="0.671875"/><stop stop-opacity="1" stop-color="rgb(74.234009%, 17.988586%, 79.150391%)" offset="0.679687"/><stop stop-opacity="1" stop-color="rgb(74.1745%, 17.828369%, 79.492188%)" offset="0.6875"/><stop stop-opacity="1" stop-color="rgb(74.11499%, 17.666626%, 79.833984%)" offset="0.695313"/><stop stop-opacity="1" stop-color="rgb(74.055481%, 17.506409%, 80.175781%)" offset="0.703125"/><stop stop-opacity="1" stop-color="rgb(73.995972%, 17.346191%, 80.517578%)" offset="0.710938"/><stop stop-opacity="1" stop-color="rgb(73.936462%, 17.185974%, 80.859375%)" offset="0.71875"/><stop stop-opacity="1" stop-color="rgb(73.876953%, 17.025757%, 81.201172%)" offset="0.726562"/><stop stop-opacity="1" stop-color="rgb(73.817444%, 16.86554%, 81.542969%)" offset="0.734375"/><stop stop-opacity="1" stop-color="rgb(73.757935%, 16.705322%, 81.884766%)" offset="0.742188"/><stop stop-opacity="1" stop-color="rgb(73.698425%, 16.543579%, 82.226562%)" offset="0.75"/><stop stop-opacity="1" stop-color="rgb(73.638916%, 16.383362%, 82.566833%)" offset="0.757812"/><stop stop-opacity="1" stop-color="rgb(73.579407%, 16.223145%, 82.90863%)" offset="0.765625"/><stop stop-opacity="1" stop-color="rgb(73.519897%, 16.062927%, 83.250427%)" offset="0.773438"/><stop stop-opacity="1" stop-color="rgb(73.460388%, 15.90271%, 83.592224%)" offset="0.78125"/><stop stop-opacity="1" stop-color="rgb(73.400879%, 15.742493%, 83.934021%)" offset="0.789063"/><stop stop-opacity="1" stop-color="rgb(73.34137%, 15.58075%, 84.275818%)" offset="0.796875"/><stop stop-opacity="1" stop-color="rgb(73.28186%, 15.420532%, 84.617615%)" offset="0.804687"/><stop stop-opacity="1" stop-color="rgb(73.220825%, 15.260315%, 84.959412%)" offset="0.8125"/><stop stop-opacity="1" stop-color="rgb(73.161316%, 15.100098%, 85.301208%)" offset="0.820313"/><stop stop-opacity="1" stop-color="rgb(73.101807%, 14.93988%, 85.643005%)" offset="0.828125"/><stop stop-opacity="1" stop-color="rgb(73.042297%, 14.779663%, 85.984802%)" offset="0.835938"/><stop stop-opacity="1" stop-color="rgb(72.982788%, 14.619446%, 86.326599%)" offset="0.84375"/><stop stop-opacity="1" stop-color="rgb(72.923279%, 14.457703%, 86.668396%)" offset="0.851562"/><stop stop-opacity="1" stop-color="rgb(72.86377%, 14.297485%, 87.010193%)" offset="0.859375"/><stop stop-opacity="1" stop-color="rgb(72.80426%, 14.137268%, 87.350464%)" offset="0.867188"/><stop stop-opacity="1" stop-color="rgb(72.744751%, 13.977051%, 87.692261%)" offset="0.875"/><stop stop-opacity="1" stop-color="rgb(72.685242%, 13.816833%, 88.034058%)" offset="0.882812"/><stop stop-opacity="1" stop-color="rgb(72.625732%, 13.656616%, 88.375854%)" offset="0.890625"/><stop stop-opacity="1" stop-color="rgb(72.566223%, 13.496399%, 88.717651%)" offset="0.898438"/><stop stop-opacity="1" stop-color="rgb(72.506714%, 13.334656%, 89.059448%)" offset="0.90625"/><stop stop-opacity="1" stop-color="rgb(72.447205%, 13.174438%, 89.401245%)" offset="0.914062"/><stop stop-opacity="1" stop-color="rgb(72.387695%, 13.014221%, 89.743042%)" offset="0.921875"/><stop stop-opacity="1" stop-color="rgb(72.328186%, 12.854004%, 90.084839%)" offset="0.929687"/><stop stop-opacity="1" stop-color="rgb(72.268677%, 12.693787%, 90.426636%)" offset="0.9375"/><stop stop-opacity="1" stop-color="rgb(72.209167%, 12.533569%, 90.768433%)" offset="0.945313"/><stop stop-opacity="1" stop-color="rgb(72.149658%, 12.373352%, 91.110229%)" offset="0.953125"/><stop stop-opacity="1" stop-color="rgb(72.088623%, 12.211609%, 91.452026%)" offset="0.960938"/><stop stop-opacity="1" stop-color="rgb(72.029114%, 12.051392%, 91.792297%)" offset="0.96875"/><stop stop-opacity="1" stop-color="rgb(71.969604%, 11.891174%, 92.134094%)" offset="0.976562"/><stop stop-opacity="1" stop-color="rgb(71.910095%, 11.730957%, 92.475891%)" offset="0.984375"/><stop stop-opacity="1" stop-color="rgb(71.850586%, 11.57074%, 92.817688%)" offset="0.992188"/><stop stop-opacity="1" stop-color="rgb(71.791077%, 11.410522%, 93.159485%)" offset="1"/></linearGradient></defs><g clip-path="url(#3835537354)"><g clip-path="url(#a22fffb04c)"><path fill="url(#90be92f58a)" d="M 40.75 16.445312 L 40.75 29.121094 L 81.015625 29.121094 L 81.015625 16.445312 Z M 40.75 16.445312 " fill-rule="nonzero"/></g></g><g fill="#000000" fill-opacity="1"><g transform="translate(2.339226, 26.331697)"><g><path d="M 9.46875 -2.34375 L 3.703125 -2.34375 L 2.84375 0 L -0.390625 0 L 6.4375 -16.40625 L 6.671875 -16.40625 L 13.515625 0 L 10.359375 0 Z M 8.609375 -4.578125 L 6.921875 -8.984375 L 6.53125 -10.28125 L 6.15625 -8.984375 L 4.53125 -4.578125 Z M 8.609375 -4.578125 "/></g></g></g><g fill="#000000" fill-opacity="1"><g transform="translate(15.461594, 26.331697)"><g><path d="M 4.765625 -2.109375 L 9.515625 -2.109375 L 9.515625 0 L 0.296875 0 L 5.515625 -9.328125 L 1.265625 -9.328125 L 1.265625 -11.53125 L 9.96875 -11.53125 Z M 4.765625 -2.109375 "/></g></g></g><g fill="#000000" fill-opacity="1"><g transform="translate(25.737311, 26.331697)"><g><path d="M 6.390625 0.296875 C 5.148438 0.296875 4.125 0.0351562 3.3125 -0.484375 C 2.5 -1.015625 1.90625 -1.722656 1.53125 -2.609375 C 1.15625 -3.503906 0.96875 -4.507812 0.96875 -5.625 C 0.96875 -6.757812 1.175781 -7.796875 1.59375 -8.734375 C 2.019531 -9.671875 2.632812 -10.414062 3.4375 -10.96875 C 4.25 -11.519531 5.21875 -11.796875 6.34375 -11.796875 C 8.007812 -11.796875 9.195312 -11.316406 9.90625 -10.359375 C 10.625 -9.398438 10.984375 -7.96875 10.984375 -6.0625 C 10.984375 -5.6875 10.972656 -5.269531 10.953125 -4.8125 L 4 -4.8125 C 4.050781 -3.875 4.3125 -3.148438 4.78125 -2.640625 C 5.257812 -2.140625 5.957031 -1.890625 6.875 -1.890625 C 7.351562 -1.890625 7.863281 -1.992188 8.40625 -2.203125 C 8.957031 -2.421875 9.363281 -2.679688 9.625 -2.984375 L 10.546875 -0.78125 C 9.460938 -0.0625 8.078125 0.296875 6.390625 0.296875 Z M 8.046875 -6.625 C 8.046875 -7.75 7.90625 -8.523438 7.625 -8.953125 C 7.34375 -9.390625 6.9375 -9.609375 6.40625 -9.609375 C 5.65625 -9.609375 5.070312 -9.328125 4.65625 -8.765625 C 4.25 -8.210938 4.023438 -7.5 3.984375 -6.625 Z M 8.046875 -6.625 "/></g></g></g><g fill="#000000" fill-opacity="1"><g transform="translate(37.748791, 26.331697)"><g><path d="M 6.390625 0.296875 C 5.148438 0.296875 4.125 0.0351562 3.3125 -0.484375 C 2.5 -1.015625 1.90625 -1.722656 1.53125 -2.609375 C 1.15625 -3.503906 0.96875 -4.507812 0.96875 -5.625 C 0.96875 -6.757812 1.175781 -7.796875 1.59375 -8.734375 C 2.019531 -9.671875 2.632812 -10.414062 3.4375 -10.96875 C 4.25 -11.519531 5.21875 -11.796875 6.34375 -11.796875 C 8.007812 -11.796875 9.195312 -11.316406 9.90625 -10.359375 C 10.625 -9.398438 10.984375 -7.96875 10.984375 -6.0625 C 10.984375 -5.6875 10.972656 -5.269531 10.953125 -4.8125 L 4 -4.8125 C 4.050781 -3.875 4.3125 -3.148438 4.78125 -2.640625 C 5.257812 -2.140625 5.957031 -1.890625 6.875 -1.890625 C 7.351562 -1.890625 7.863281 -1.992188 8.40625 -2.203125 C 8.957031 -2.421875 9.363281 -2.679688 9.625 -2.984375 L 10.546875 -0.78125 C 9.460938 -0.0625 8.078125 0.296875 6.390625 0.296875 Z M 8.046875 -6.625 C 8.046875 -7.75 7.90625 -8.523438 7.625 -8.953125 C 7.34375 -9.390625 6.9375 -9.609375 6.40625 -9.609375 C 5.65625 -9.609375 5.070312 -9.328125 4.65625 -8.765625 C 4.25 -8.210938 4.023438 -7.5 3.984375 -6.625 Z M 8.046875 -6.625 "/></g></g></g><g fill="#000000" fill-opacity="1"><g transform="translate(49.760271, 26.331697)"><g><path d="M 14.53125 -11.796875 C 15.664062 -11.796875 16.523438 -11.429688 17.109375 -10.703125 C 17.691406 -9.972656 17.984375 -8.941406 17.984375 -7.609375 L 17.984375 0 L 15.046875 0 L 15.046875 -7.3125 C 15.046875 -7.976562 14.914062 -8.503906 14.65625 -8.890625 C 14.394531 -9.273438 14 -9.46875 13.46875 -9.46875 C 13.101562 -9.46875 12.753906 -9.375 12.421875 -9.1875 C 12.097656 -9 11.835938 -8.738281 11.640625 -8.40625 C 11.441406 -8.082031 11.34375 -7.71875 11.34375 -7.3125 L 11.34375 0 L 8.375 0 L 8.375 -7.3125 C 8.375 -7.96875 8.226562 -8.5 7.9375 -8.90625 C 7.65625 -9.3125 7.242188 -9.515625 6.703125 -9.515625 C 6.335938 -9.515625 6 -9.414062 5.6875 -9.21875 C 5.382812 -9.03125 5.140625 -8.769531 4.953125 -8.4375 C 4.765625 -8.101562 4.671875 -7.726562 4.671875 -7.3125 L 4.671875 0 L 1.71875 0 L 1.71875 -11.53125 L 4.375 -11.53125 L 4.4375 -10 C 5.21875 -11.195312 6.351562 -11.796875 7.84375 -11.796875 C 8.613281 -11.796875 9.257812 -11.625 9.78125 -11.28125 C 10.300781 -10.945312 10.691406 -10.457031 10.953125 -9.8125 C 11.742188 -11.132812 12.9375 -11.796875 14.53125 -11.796875 Z M 14.53125 -11.796875 "/></g></g></g></svg>